HIERARCHY
ROOT Hips
{
	OFFSET 0.00000 0.00000 0.00000
	CHANNELS 6 Xposition Yposition Zposition Zrotation Yrotation Xrotation 
	JOINT LHipJoint
	{
		OFFSET 0 0 0
		CHANNELS 3 Zrotation Yrotation Xrotation
		JOINT LeftUpLeg
		{
			OFFSET 1.40252 -1.71424 0.59123
			CHANNELS 3 Zrotation Yrotation Xrotation
			JOINT LeftLeg
			{
				OFFSET 2.50071 -6.87065 0.00000
				CHANNELS 3 Zrotation Yrotation Xrotation
				JOINT LeftFoot
				{
					OFFSET 2.50834 -6.89162 0.00000
					CHANNELS 3 Zrotation Yrotation Xrotation
					JOINT LeftToeBase
					{
						OFFSET 0.21528 -0.59149 1.64448
						CHANNELS 3 Zrotation Yrotation Xrotation
						End Site
						{
							OFFSET 0.00000 -0.00000 0.87921
						}
					}
				}
			}
		}
	}
	JOINT RHipJoint
	{
		OFFSET 0 0 0
		CHANNELS 3 Zrotation Yrotation Xrotation
		JOINT RightUpLeg
		{
			OFFSET -1.53651 -1.71424 0.59123
			CHANNELS 3 Zrotation Yrotation Xrotation
			JOINT RightLeg
			{
				OFFSET -2.45783 -6.75285 0.00000
				CHANNELS 3 Zrotation Yrotation Xrotation
				JOINT RightFoot
				{
					OFFSET -2.51921 -6.92147 0.00000
					CHANNELS 3 Zrotation Yrotation Xrotation
					JOINT RightToeBase
					{
						OFFSET -0.21777 -0.59831 1.59676
						CHANNELS 3 Zrotation Yrotation Xrotation
						End Site
						{
							OFFSET -0.00000 -0.00000 0.85779
						}
					}
				}
			}
		}
	}
	JOINT LowerBack
	{
		OFFSET 0 0 0
		CHANNELS 3 Zrotation Yrotation Xrotation
		JOINT Spine
		{
			OFFSET 0.02212 2.07622 0.03776
			CHANNELS 3 Zrotation Yrotation Xrotation
			JOINT Spine1
			{
				OFFSET -0.00949 2.08009 -0.00123
				CHANNELS 3 Zrotation Yrotation Xrotation
				JOINT Neck
				{
					OFFSET 0 0 0
					CHANNELS 3 Zrotation Yrotation Xrotation
					JOINT Neck1
					{
						OFFSET 0.00288 1.67184 0.11155
						CHANNELS 3 Zrotation Yrotation Xrotation
						JOINT Head
						{
							OFFSET -0.02412 1.66997 -0.22040
							CHANNELS 3 Zrotation Yrotation Xrotation
							End Site
							{
								OFFSET -0.01026 1.69043 -0.08683
							}
						}
					}
				}
				JOINT LeftShoulder
				{
					OFFSET 0 0 0
					CHANNELS 3 Zrotation Yrotation Xrotation
					JOINT LeftArm
					{
						OFFSET 3.97941 0.74048 0.81462
						CHANNELS 3 Zrotation Yrotation Xrotation
						JOINT LeftForeArm
						{
							OFFSET 5.01834 -0.00000 -0.00000
							CHANNELS 3 Zrotation Yrotation Xrotation
							JOINT LeftHand
							{
								OFFSET 3.48690 -0.00000 0.00000
								CHANNELS 3 Zrotation Yrotation Xrotation
								JOINT LeftFingerBase
								{
									OFFSET 0 0 0
									CHANNELS 3 Zrotation Yrotation Xrotation
									JOINT LeftHandIndex1
									{
										OFFSET 0.76799 -0.00000 0.00000
										CHANNELS 3 Zrotation Yrotation Xrotation
										End Site
										{
											OFFSET 0.61917 -0.00000 0.00000
										}
									}
								}
								JOINT LThumb
								{
									OFFSET 0 0 0
									CHANNELS 3 Zrotation Yrotation Xrotation
									End Site
									{
										OFFSET 0.62863 -0.00000 0.62863
									}
								}
							}
						}
					}
				}
				JOINT RightShoulder
				{
					OFFSET 0 0 0
					CHANNELS 3 Zrotation Yrotation Xrotation
					JOINT RightArm
					{
						OFFSET -3.88702 1.02123 0.44091
						CHANNELS 3 Zrotation Yrotation Xrotation
						JOINT RightForeArm
						{
							OFFSET -4.70164 -0.00000 0.00000
							CHANNELS 3 Zrotation Yrotation Xrotation
							JOINT RightHand
							{
								OFFSET -3.49911 -0.00000 0.00000
								CHANNELS 3 Zrotation Yrotation Xrotation
								JOINT RightFingerBase
								{
									OFFSET 0 0 0
									CHANNELS 3 Zrotation Yrotation Xrotation
									JOINT RightHandIndex1
									{
										OFFSET -0.73933 -0.00000 0.00000
										CHANNELS 3 Zrotation Yrotation Xrotation
										End Site
										{
											OFFSET -0.59607 -0.00000 0.00000
										}
									}
								}
								JOINT RThumb
								{
									OFFSET 0 0 0
									CHANNELS 3 Zrotation Yrotation Xrotation
									End Site
									{
										OFFSET -0.60517 -0.00000 0.60517
									}
								}
							}
						}
					}
				}
			}
		}
	}
}
MOTION
Frames: 10
Frame Time: .0083333
-12.7032 17.5968 -0.7261 0 0 0 0 0 0 -21 0 0 0 0 0 0 0 0 0 0 0 0 0 0 21 0 0 0 0 0 0 0 0 0 0 0 0 0 0 0 0 0 0 0 0 0 0 -16 0 0 21 0 0 11 0 0 0 -8 0 0 0 0 0 0 0 0 0 0 0 0 0 0 0 0 0 0 0 0 8 0 0 0 0 0 0 0 0 0 0 0 0 0 0 0 0 0
-12.7032 17.5968 -0.7261 33.3530 83.6230 40.2430 0.0000 0.0000 0.0000 -23.0092 -3.5316 -5.7294 0.2459 3.1913 8.8117 1.1793 1.1853 -20.9804 0.6400 5.1181 14.2458 0.0000 0.0000 0.0000 14.3410 12.2534 -6.2912 -0.4168 -4.1437 11.4814 -0.3602 -7.5206 -16.5081 -0.0007 -0.1718 0.4720 -4.5689 1.8273 -5.1858 -0.7640 2.7430 -0.1068 1.9703 1.3197 2.6211 -2.3896 -6.2499 -2.8348 0.9267 -8.1584 15.7487 0.2383 -3.9526 5.3475 -0.0000 0.0000 0.0000 -92.5115 -0.0834 29.1284 17.9093 -28.0409 -4.5065 -0.0000 0.0000 -9.2187 42.9410 40.6807 31.2410 -7.1250 0.0000 -0.0000 16.6955 79.1514 13.3092 -0.0000 0.0000 0.0000 97.4799 -1.8709 17.3177 -16.7703 26.5539 -3.9841 0.0000 0.0000 21.5198 -27.5111 6.9167 -3.5888 7.1250 -0.0000 -0.0000 -0.5377 -22.1916 -0.2948
-12.7117 17.6896 -0.7550 27.1959 83.7460 37.3453 0.0000 0.0000 0.0000 -22.0987 -4.6204 -9.5245 0.2770 3.3851 9.3528 1.1540 1.2309 -20.7782 0.8348 5.8286 16.2881 0.0000 0.0000 0.0000 14.1388 13.7293 -10.2980 -0.4860 -4.4703 12.4038 -0.3594 -7.5632 -16.5396 -0.0001 -0.0517 0.1421 -4.1497 1.7204 -8.4092 -0.5648 2.7250 -1.0627 2.0477 1.3170 3.4449 -2.1699 -6.3454 -3.1571 0.3777 -8.2228 15.9889 0.0159 -4.0037 5.4452 0.0000 -0.0000 0.0000 -92.6069 -0.2265 29.7928 18.1174 -28.3073 -4.6048 -0.0000 0.0000 -9.4707 42.4472 40.5259 30.7240 -7.1250 0.0000 -0.0000 15.3207 78.8269 12.1049 0.0000 -0.0000 0.0000 97.1836 -2.1578 17.9309 -17.0386 26.9086 -4.1048 0.0000 0.0000 21.2416 -27.4514 7.2461 -3.7489 7.1250 -0.0000 -0.0000 -0.4774 -21.8260 -0.2657
-12.7214 17.7371 -0.7748 22.9283 83.9391 34.8676 0.0000 0.0000 0.0000 -21.4012 -5.3337 -11.5474 0.2921 3.4757 9.6062 1.1429 1.2722 -20.6968 0.9126 6.0872 17.0375 0.0000 0.0000 0.0000 14.1381 14.5764 -12.4612 -0.5228 -4.6337 12.8666 -0.3482 -7.7336 -16.5630 -0.0002 -0.0841 0.2312 -3.9340 1.6393 -10.0417 -0.3874 2.6706 -1.7039 2.1553 1.3034 3.6907 -1.9713 -6.4499 -3.2199 0.0055 -8.3242 16.1281 -0.1404 -4.0640 5.4758 -0.0000 -0.0000 0.0000 -92.5452 -0.1705 30.7281 18.4051 -28.6728 -4.7420 -0.0000 0.0000 -9.7776 42.3851 40.7847 30.8016 -7.1250 0.0000 -0.0000 15.0315 79.0773 11.9510 -0.0000 -0.0000 0.0000 97.2436 -2.4933 17.1585 -17.5867 27.6247 -4.3559 0.0000 0.0000 23.5652 -25.6050 6.5396 -3.1241 7.1250 -0.0000 -0.0000 0.8430 -22.7355 0.4518
-12.7325 17.7385 -0.7865 20.2386 84.2603 32.5556 0.0000 0.0000 0.0000 -20.9124 -5.7046 -11.8517 0.2906 3.4665 9.5802 1.1508 1.2201 -20.7458 0.9677 6.2631 17.5497 0.0000 0.0000 0.0000 14.4436 14.7726 -12.8426 -0.5209 -4.6254 12.8431 -0.3281 -7.9740 -16.5447 -0.0008 -0.1870 0.5137 -3.8994 1.5744 -10.1813 -0.1723 2.5783 -1.9940 2.3467 1.2698 3.4629 -1.7302 -6.5664 -3.3115 -0.4239 -8.4366 16.2695 -0.3227 -4.1312 5.5068 -0.0000 0.0000 0.0000 -92.5346 -0.0862 31.6900 18.6658 -29.0013 -4.8677 -0.0000 0.0000 -9.9608 42.4151 40.8892 30.8814 -7.1250 0.0000 -0.0000 15.0715 79.1966 12.0192 -0.0000 0.0000 0.0000 97.2357 -2.8651 16.3920 -18.0895 28.2716 -4.5916 0.0000 0.0000 25.7767 -23.9042 5.4804 -2.4239 7.1250 -0.0000 -0.0000 2.0754 -23.9893 1.0530
-12.7339 17.7385 -0.8048 17.4336 84.4166 30.0562 0.0000 0.0000 0.0000 -20.5652 -6.0067 -11.9145 0.2740 3.3672 9.3029 1.1517 1.3794 -20.8190 0.9493 6.2050 17.3805 0.0000 0.0000 0.0000 14.6677 14.8364 -13.1161 -0.5119 -4.5859 12.7312 -0.3279 -7.9964 -16.5636 -0.0070 -0.5421 1.4895 -3.8435 1.5330 -10.3265 0.0426 2.5171 -2.2892 2.5298 1.2528 3.2323 -1.6690 -6.6148 -3.3921 -0.7762 -8.4499 16.4610 -0.4480 -4.1548 5.5620 0.0000 0.0000 0.0000 -92.6304 0.1123 32.4466 18.9080 -29.3042 -4.9857 -0.0000 0.0000 -10.0697 42.2376 40.7212 30.6392 -7.1250 0.0000 -0.0000 14.6388 78.9618 11.6026 0.0000 0.0000 0.0000 96.8170 -3.0870 16.6449 -17.9707 28.1196 -4.5354 0.0000 0.0000 26.3644 -23.6386 4.6858 -2.0478 7.1250 -0.0000 -0.0000 2.2655 -24.8669 1.1036
-12.7314 17.7390 -0.8266 14.4405 84.5032 27.3149 0.0000 0.0000 0.0000 -20.2748 -6.1476 -11.8941 0.2504 3.2201 8.8920 1.1479 1.5751 -20.8670 0.8741 5.9608 16.6707 0.0000 0.0000 0.0000 14.8884 14.8895 -13.2890 -0.5008 -4.5367 12.5918 -0.3449 -7.9344 -16.7178 -0.0403 -1.2959 3.5634 -3.7388 1.4714 -10.4564 0.2518 2.4251 -2.5879 2.6753 1.2217 2.9945 -1.7731 -6.6200 -3.2138 -0.8727 -8.4302 16.5296 -0.4547 -4.1558 5.5536 -0.0000 0.0000 0.0000 -92.7145 0.4563 33.0371 19.2165 -29.6868 -5.1376 -0.0000 0.0000 -10.2991 42.0504 40.6185 30.4222 -7.1250 0.0000 -0.0000 14.1609 78.7917 11.1727 -0.0000 0.0000 0.0000 96.3967 -3.2562 17.0558 -17.6076 27.6518 -4.3656 0.0000 0.0000 26.2124 -24.3450 4.3540 -1.9674 7.1250 -0.0000 -0.0000 1.7319 -25.2026 0.8299
-12.7317 17.7393 -0.8467 11.3359 84.6155 24.4102 0.0000 0.0000 0.0000 -19.9589 -6.1587 -11.8780 0.2280 3.0733 8.4828 1.1333 1.6162 -20.7562 0.8100 5.7433 16.0415 0.0000 0.0000 0.0000 15.1501 14.9928 -13.3283 -0.4821 -4.4524 12.3530 -0.3439 -7.9960 -16.7665 -0.0728 -1.7411 4.7906 -3.6246 1.4318 -10.5199 0.4416 2.3599 -2.8228 2.7974 1.2016 2.7862 -1.6529 -6.7226 -3.0453 -1.1768 -8.5391 16.3592 -0.5628 -4.2241 5.4531 -0.0000 0.0000 0.0000 -92.7381 0.7822 33.6663 19.5709 -30.1219 -5.3143 -0.0000 0.0000 -10.5428 41.9730 40.5920 30.3408 -7.1250 0.0000 -0.0000 13.9591 78.7381 10.9973 -0.0000 0.0000 0.0000 96.0404 -3.2714 17.2801 -17.3091 27.2634 -4.2280 0.0000 0.0000 25.9791 -24.5414 3.7101 -1.6924 7.1250 -0.0000 -0.0000 1.5779 -25.9019 0.7304
-12.7336 17.7440 -0.8637 7.7416 84.7347 21.1376 0.0000 0.0000 0.0000 -19.5569 -6.0541 -12.0796 0.2073 2.9318 8.0889 1.1129 1.4994 -20.5244 0.7685 5.5977 15.6215 0.0000 0.0000 0.0000 15.4281 15.2808 -13.4203 -0.4584 -4.3430 12.0437 -0.3191 -8.2491 -16.7074 -0.0743 -1.7579 4.8372 -3.4661 1.4097 -10.6877 0.6024 2.3205 -3.0616 2.8715 1.1939 2.6326 -1.4060 -6.8739 -3.0858 -1.6293 -8.7039 16.2238 -0.7474 -4.3229 5.3856 0.0000 0.0000 0.0000 -92.6723 1.0843 34.3156 19.9174 -30.5427 -5.4893 -0.0000 0.0000 -10.7430 41.9637 40.6927 30.3838 -7.1250 0.0000 -0.0000 13.8811 78.8403 10.9643 0.0000 0.0000 0.0000 95.7583 -3.2689 17.3440 -17.0311 26.8988 -4.1014 0.0000 0.0000 25.7232 -24.3754 3.0367 -1.3750 7.1250 -0.0000 -0.0000 1.7007 -26.6458 0.7577
-12.7329 17.7493 -0.8803 4.3147 84.8902 18.0895 0.0000 0.0000 0.0000 -19.1860 -5.9391 -12.4102 0.1899 2.8065 7.7406 1.0891 1.3743 -20.2581 0.7504 5.5329 15.4350 0.0000 0.0000 0.0000 15.6598 15.6190 -13.5037 -0.4312 -4.2142 11.6800 -0.2927 -8.5813 -16.7153 -0.0773 -1.7936 4.9355 -3.2758 1.3637 -10.9894 0.7202 2.2535 -3.2945 2.8848 1.1708 2.5634 -1.7991 -7.0509 -2.8331 -1.2241 -8.9809 15.9677 -0.5623 -4.4577 5.3019 -0.0000 0.0000 0.0000 -92.5647 1.3330 34.8315 20.1835 -30.8628 -5.6252 -0.0000 0.0000 -10.9189 41.9753 40.8530 30.4752 -7.1250 0.0000 -0.0000 13.8281 79.0117 10.9702 -0.0000 0.0000 0.0000 95.5293 -3.2080 17.3359 -16.6375 26.3774 -3.9249 0.0000 0.0000 25.5319 -24.5689 2.8440 -1.2995 7.1250 -0.0000 -0.0000 1.5526 -26.8525 0.6841
